<svg xmlns="http://www.w3.org/2000/svg" viewBox="0 0 780 780" id="ambulance-car"><path fill="#ff6498" d="M716.9 470.3 614.1 318.6c-22-34.2-61.2-53.8-100.4-53.8H173.5c-68.6 0-122.4 53.8-122.4 122.4v216.4c0 38.6 27.5 68.9 64.7 72.9h31.9c.1-48.6 39.7-88.1 88.3-88.1 48.7 0 88.3 39.6 88.3 88.3l139.8.1v-.1c0-48.7 39.7-88.3 88.3-88.3 48.7 0 88.3 39.7 88.3 88.3v.3H663c41.6 0 73.4-31.8 73.4-73.4V539c.1-24.6-7.3-46.6-19.5-68.7z"></path><path fill="#ff0b5c" d="M614.1 318.6c-.5-.8-1.1-1.6-1.6-2.4-20.2-13.9-44.5-21.4-68.8-21.4H203.5c-68.6 0-122.4 53.8-122.4 122.4v216.4c0 12.8 3 24.7 8.4 35 7.9 4.2 16.8 6.9 26.3 8h31.9c.1-48.6 39.7-88.1 88.3-88.1 32 0 60.1 17.1 75.6 42.7 17.2 10.4 13.5 26.5 20.5 45.6l132 .1v-.1c0-48.7 39.7-88.3 88.3-88.3 32 0 60.1 17.1 75.6 42.7 17.2 10.4 13.6 26.6 20.5 45.8 40.3-1.3 87.9-32.6 87.9-73.4V539c0-24.5-7.4-46.5-19.6-68.6L614.1 318.6z"></path><path fill="none" stroke="#000" stroke-linecap="round" stroke-linejoin="round" stroke-miterlimit="10" stroke-width="20" d="M716.9 470.3 614.1 318.6c-22-34.2-61.2-53.8-100.4-53.8H173.5c-68.6 0-122.4 53.8-122.4 122.4v216.4c0 38.6 27.5 68.9 64.7 72.9h31.9c.1-48.6 39.7-88.1 88.3-88.1 48.7 0 88.3 39.6 88.3 88.3l139.8.1v-.1c0-48.7 39.7-88.3 88.3-88.3 48.7 0 88.3 39.7 88.3 88.3v.3H663c41.6 0 73.4-31.8 73.4-73.4V539c.1-24.6-7.3-46.6-19.5-68.7z"></path><path fill="#fff" d="M716.9 470.3 614.1 318.6c-9.5-14.8-22.2-26.8-36.7-35.7l-25.6-11.8v194.6c0 17.5 14.2 31.7 31.7 31.7h145.7c-3.2-9.2-7.4-18.1-12.3-27.1z"></path><path fill="#9ffdff" d="M586.7 341.1v156.3h136L649 388.7c-9.5-14.8-22.2-26.8-36.7-35.7l-25.6-11.9z"></path><path fill="none" stroke="#000" stroke-linecap="round" stroke-linejoin="round" stroke-miterlimit="10" stroke-width="20" d="M716.9 470.3 614.1 318.6c-9.5-14.8-22.2-26.8-36.7-35.7l-25.6-11.8v194.6c0 17.5 14.2 31.7 31.7 31.7h145.7c-3.2-9.2-7.4-18.1-12.3-27.1z"></path><path fill="#fff" d="M308.5 494.2c-5.5 0-10-4.5-10-10v-24.9h-26c-5.5 0-10-4.5-10-10v-36.6c0-5.5 4.5-10 10-10h26v-26c0-5.5 4.5-10 10-10H345c5.5 0 10 4.5 10 10v26h26c5.5 0 10 4.5 10 10v36.6c0 5.5-4.5 10-10 10h-26v24.9c0 5.5-4.5 10-10 10h-36.5z"></path><path d="M345 376.7v36h36v36.6h-36v34.9h-36.6v-34.9h-36v-36.6h36v-36H345m0-20h-36.6c-11 0-20 9-20 20v16h-16c-11 0-20 9-20 20v36.6c0 11 9 20 20 20h16v14.9c0 11 9 20 20 20H345c11 0 20-9 20-20v-14.9h16c11 0 20-9 20-20v-36.6c0-11-9-20-20-20h-16v-16c0-11-8.9-20-20-20z"></path><path fill="#fff" d="M326.8 193.5c-21 0-38 17-38 38v23.8h76v-23.8c0-21-17-38-38-38z"></path><path fill="#9ffdff" d="M364.8 255.3v-23.8c0-10.9-4.6-20.7-12-27.7-1.7-.2-3.3-.3-5.1-.3-21 0-38 17-38 38v13.8h55.1z"></path><path d="M326.8 193.5c21 0 38 17 38 38v23.8h-76v-23.8c-.1-21 17-38 38-38m0-20c-32 0-58 26-58 58v23.8c0 11 9 20 20 20h76c11 0 20-9 20-20v-23.8c0-32-26-58-58-58z"></path><path fill="none" stroke="#000" stroke-linecap="round" stroke-linejoin="round" stroke-miterlimit="10" stroke-width="20" d="M22.8 739.1h739"></path><path fill="#9ffdff" stroke="#000" stroke-miterlimit="10" stroke-width="20" d="M236.1 635.3c-22.8 0-41.4 18.6-41.4 41.4 0 22.8 18.6 41.4 41.4 41.4 22.8 0 41.4-18.6 41.4-41.4 0-22.8-18.6-41.4-41.4-41.4zm315.6 0c-22.8 0-41.4 18.6-41.4 41.4 0 22.8 18.6 41.4 41.4 41.4 22.8 0 41.4-18.6 41.4-41.4 0-22.8-18.6-41.4-41.4-41.4z"></path><g fill="none" stroke="#000" stroke-linecap="round" stroke-linejoin="round" stroke-miterlimit="10" stroke-width="20"><path d="m440.9 75.7-26.7 50.9M215.5 75.7l26.7 50.9M328.2 41.1v69.5"></path></g></svg>